<svg
   xmlns:dc="http://purl.org/dc/elements/1.1/"
   xmlns:cc="http://creativecommons.org/ns#"
   xmlns:rdf="http://www.w3.org/1999/02/22-rdf-syntax-ns#"
   xmlns:svg="http://www.w3.org/2000/svg"
   xmlns="http://www.w3.org/2000/svg"
   xmlns:sodipodi="http://sodipodi.sourceforge.net/DTD/sodipodi-0.dtd"
   xmlns:inkscape="http://www.inkscape.org/namespaces/inkscape"
   width="100%"
   height="100%"
   viewBox="0 0 512 512"
   version="1.1"
   xml:space="preserve"
   style="fill-rule:evenodd;clip-rule:evenodd;stroke-linejoin:round;stroke-miterlimit:1.41421;"
   id="svg2"
   inkscape:version="0.48.4 r9939"
   sodipodi:docname="irc.svg"><metadata
     id="metadata32"><rdf:RDF><cc:Work
         rdf:about=""><dc:format>image/svg+xml</dc:format><dc:type
           rdf:resource="http://purl.org/dc/dcmitype/StillImage" /><dc:title></dc:title></cc:Work></rdf:RDF></metadata><defs
     id="defs30" /><sodipodi:namedview
     pagecolor="#ffffff"
     bordercolor="#666666"
     borderopacity="1"
     objecttolerance="10"
     gridtolerance="10"
     guidetolerance="10"
     inkscape:pageopacity="0"
     inkscape:pageshadow="2"
     inkscape:window-width="1920"
     inkscape:window-height="1056"
     id="namedview28"
     showgrid="false"
     inkscape:zoom="0.921875"
     inkscape:cx="559.13024"
     inkscape:cy="99.918536"
     inkscape:window-x="0"
     inkscape:window-y="24"
     inkscape:window-maximized="1"
     inkscape:current-layer="svg2"><inkscape:grid
       type="xygrid"
       id="grid3058" /></sodipodi:namedview><g
     id="g3060"><g
       id="0"
       transform="matrix(-4,0,0,4,373,-3773.45)"><path
         d="m 76.5,962.362 c 14,0 14,0 14,14 l 0,32 c 0,14 0,14 -14,14 l -11,0 0,20 -18,-20 -17,0 c -14,0 -14,0 -14,-14 l 0,-32 c 0,-14 0,-14 14,-14"
         style="fill:#89afff;fill-rule:nonzero"
         id="path7"
         inkscape:connector-curvature="0" /></g><g
       id="01"
       transform="matrix(4,0,0,4,140,-3733.45)"><path
         d="m 76.5,962.362 c 14,0 14,0 14,14 l 0,32 c 0,14 0,14 -14,14 l -11,0 0,20 -18,-20 -17,0 c -14,0 -14,0 -14,-14 l 0,-32 c 0,-14 0,-14 14,-14"
         style="fill:#00c259;fill-rule:nonzero"
         id="path22"
         inkscape:connector-curvature="0" /></g><g
       transform="translate(-61.1053,101.029)"
       id="g24"><path
         d="m 439.703,171.504 c 0.26667,-2.66667 2.66667,-5.06667 5.33333,-5.06667 l 15.4667,0 c 2.93333,0 5.06667,-2.13333 5.06667,-5.06667 l 0,-10.1333 c 0,-2.93333 -2.13333,-5.06667 -5.06667,-5.06667 l -12,0 c -2.66667,0 -4.53333,-2.13333 -4,-4.8 l 1.33333,-10.1333 c 0.26667,-2.66667 2.66667,-5.06667 5.33333,-5.06667 l 14.9333,0 c 2.93333,0 5.06667,-2.13333 5.06667,-5.06667 l 0,-10.1333 c 0,-2.93333 -2.13333,-5.06667 -5.06667,-5.06667 l -12,0 c -2.66667,0 -4.53333,-2.13333 -4,-4.8 l 5.06667,-36 c 0.53333,-2.66667 -1.6,-5.06667 -4.26667,-5.06667 l -10.1333,0 c -3.2,0 -5.33333,1.86667 -5.86667,5.06667 l -5.06667,35.7333 c -0.53333,2.66667 -2.93333,5.06667 -5.6,5.06667 l -9.33333,0 c -2.66667,0 -4.53333,-2.13333 -4,-4.8 l 5.33333,-36 c 0.53333,-2.66667 -1.6,-5.06667 -4.26667,-5.06667 l -10.1333,0 c -3.2,0 -5.33333,1.86667 -5.86667,5.06667 l -4.8,35.7333 c -0.53333,2.66667 -2.93333,5.06667 -5.6,5.06667 l -14.9333,0 c -2.93333,0 -5.06667,2.13333 -5.06667,5.06667 l 0,10.1333 c 0,2.93333 2.13333,5.06667 5.06667,5.06667 l 12,0 c 2.4,0 4.26667,2.13333 4,5.06667 l -1.33333,9.86667 c -0.53333,2.66667 -2.93333,5.06667 -5.6,5.06667 l -14.9333,0 c -2.93333,0 -5.06667,2.13333 -5.06667,5.06667 l 0,10.1333 c 0,2.93333 2.13333,5.06667 5.06667,5.06667 l 12,0 c 2.4,0 4.26667,2.13333 4,5.06667 l -5.6,38.6667 c -0.53333,2.66667 1.6,5.06667 4.26667,5.06667 l 10.1333,0 c 3.2,0 5.33333,-1.86667 5.86667,-5.06667 l 5.33333,-38.6667 c 0.26667,-2.66667 2.66667,-5.06667 5.33333,-5.06667 l 9.6,0 c 2.4,0 4.26667,2.13333 4,5.06667 l -5.33333,38.6667 c -0.53333,2.66667 1.6,5.06667 4.26667,5.06667 l 10.1333,0 c 3.2,0 5.33333,-1.86667 5.86667,-5.06667 l 5.06667,-38.6667 z m -30.134,-25.333 c -2.66667,0 -4.53333,-2.13333 -4,-4.8 l 1.33333,-10.1333 c 0.26667,-2.66667 2.66667,-5.06667 5.33333,-5.06667 l 9.33333,0 c 2.4,0 4.26667,2.13333 4,5.06667 l -1.33333,9.86667 c -0.53333,2.66667 -2.93333,5.06667 -5.6,5.06667 l -9.06667,0 z"
         style="fill:#000000;fill-opacity:0.5019609;fill-rule:nonzero"
         id="path26"
         inkscape:connector-curvature="0" /></g><path
       d="m 70.620964,141.34814 88.275396,0 c 11.03442,0 11.03442,0 11.03442,7.67027 0,7.67028 0,7.67028 -11.03442,7.67028 l -88.275396,0 c -11.034425,0 -11.034425,0 -11.034425,-7.67028 0,-7.67027 -0.580753,-7.67027 11.034425,-7.67027 z"
       style="fill:#000000;fill-opacity:0.10196102;fill-rule:nonzero;stroke-linejoin:round;stroke-miterlimit:1.41420996"
       id="path16"
       inkscape:connector-curvature="0" /><path
       d="m 71.325638,181.77231 85.369052,0 c 10.67113,0 10.67113,0 10.67113,2.18004 0,2.18002 0,2.18002 -10.67113,2.18002 l -85.369052,0 c -10.671133,0 -10.671133,0 -10.671133,-2.18002 0,-2.18004 -0.561632,-2.18004 10.671133,-2.18004 z"
       style="fill:#000000;fill-opacity:0.10196102;fill-rule:nonzero;stroke-linejoin:round;stroke-miterlimit:1.41420996"
       id="path18"
       inkscape:connector-curvature="0" /><path
       d="m 71.379897,212.57707 85.802933,0 c 10.72537,0 10.72537,0 10.72537,1.36647 0,1.36648 0,1.36648 -10.72537,1.36648 l -85.802933,0 c -10.725369,0 -10.725369,0 -10.725369,-1.36648 0,-1.36647 -0.564487,-1.36647 10.725369,-1.36647 z"
       style="fill:#000000;fill-opacity:0.10196102;fill-rule:nonzero;stroke-linejoin:round;stroke-miterlimit:1.41420996"
       id="path20"
       inkscape:connector-curvature="0" /><path
       d="m 71.949159,245.73661 87.538451,0 c 10.94231,0 10.94231,0 10.94231,1.36647 0,1.36648 0,1.36648 -10.94231,1.36648 l -87.538451,0 c -10.942309,0 -10.942309,0 -10.942309,-1.36648 0,-1.36647 -0.575904,-1.36647 10.942309,-1.36647 z"
       style="fill:#000000;fill-opacity:0.10196102;fill-rule:nonzero;stroke-linejoin:round;stroke-miterlimit:1.41420996"
       id="path20-7"
       inkscape:connector-curvature="0" /></g>
</svg>
